<svg width="346" height="232" viewBox="0 0 346 232" fill="none" xmlns="http://www.w3.org/2000/svg">
<rect width="346" height="232" fill="white"/>
<path opacity="0.7" d="M9.08449 23C8.74849 23 8.44515 22.923 8.17449 22.769C7.90849 22.6103 7.69615 22.3957 7.53749 22.125C7.38349 21.8543 7.30649 21.551 7.30649 21.215C7.30649 21.1123 7.33915 21.0283 7.40449 20.963C7.46982 20.893 7.55382 20.858 7.65649 20.858C7.75915 20.858 7.84549 20.893 7.91549 20.963C7.98549 21.0283 8.02049 21.1123 8.02049 21.215C8.02049 21.4157 8.06715 21.5977 8.16049 21.761C8.25382 21.9243 8.37982 22.0527 8.53849 22.146C8.70182 22.2393 8.88382 22.286 9.08449 22.286C9.28982 22.286 9.47182 22.2393 9.63049 22.146C9.79382 22.0527 9.92215 21.9243 10.0155 21.761C10.1088 21.5977 10.1555 21.4157 10.1555 21.215C10.1555 21.0097 10.1088 20.8277 10.0155 20.669C9.92215 20.5057 9.79382 20.3773 9.63049 20.284C9.47182 20.1907 9.28982 20.144 9.08449 20.144H7.91549C7.81282 20.144 7.72882 20.1113 7.66349 20.046C7.59815 19.976 7.56549 19.8897 7.56549 19.787V17.897C7.56549 17.7943 7.59815 17.708 7.66349 17.638C7.72882 17.568 7.81282 17.533 7.91549 17.533H10.2535C10.3515 17.533 10.4355 17.5703 10.5055 17.645C10.5755 17.715 10.6105 17.799 10.6105 17.897C10.6105 17.9903 10.5755 18.072 10.5055 18.142C10.4402 18.212 10.3562 18.247 10.2535 18.247H8.27249V19.43H9.08449C9.42515 19.43 9.72849 19.5093 9.99449 19.668C10.2652 19.822 10.4775 20.0343 10.6315 20.305C10.7902 20.571 10.8695 20.8743 10.8695 21.215C10.8695 21.551 10.7902 21.8543 10.6315 22.125C10.4775 22.3957 10.2652 22.6103 9.99449 22.769C9.72849 22.923 9.42515 23 9.08449 23ZM13.2768 23C12.7448 23 12.3318 22.7597 12.0378 22.279C11.7485 21.7937 11.6038 21.1217 11.6038 20.263C11.6038 19.3997 11.7485 18.7277 12.0378 18.247C12.3318 17.7663 12.7448 17.526 13.2768 17.526C13.6315 17.526 13.9325 17.638 14.1798 17.862C14.4318 18.0813 14.6232 18.3963 14.7538 18.807C14.8845 19.213 14.9498 19.6983 14.9498 20.263C14.9498 20.8277 14.8845 21.3153 14.7538 21.726C14.6232 22.132 14.4318 22.447 14.1798 22.671C13.9325 22.8903 13.6315 23 13.2768 23ZM13.2768 22.272C13.4915 22.272 13.6688 22.1857 13.8088 22.013C13.9488 21.8357 14.0538 21.5953 14.1238 21.292C14.1938 20.9887 14.2288 20.6457 14.2288 20.263C14.2288 19.8803 14.1938 19.5373 14.1238 19.234C14.0538 18.9307 13.9488 18.6903 13.8088 18.513C13.6688 18.3357 13.4915 18.247 13.2768 18.247C13.0622 18.247 12.8848 18.3357 12.7448 18.513C12.6048 18.6857 12.4998 18.9237 12.4298 19.227C12.3598 19.5303 12.3248 19.8757 12.3248 20.263C12.3248 20.6503 12.3598 20.9957 12.4298 21.299C12.4998 21.6023 12.6048 21.8403 12.7448 22.013C12.8895 22.1857 13.0668 22.272 13.2768 22.272ZM17.3237 23C16.7917 23 16.3787 22.7597 16.0847 22.279C15.7954 21.7937 15.6507 21.1217 15.6507 20.263C15.6507 19.3997 15.7954 18.7277 16.0847 18.247C16.3787 17.7663 16.7917 17.526 17.3237 17.526C17.6784 17.526 17.9794 17.638 18.2267 17.862C18.4787 18.0813 18.67 18.3963 18.8007 18.807C18.9314 19.213 18.9967 19.6983 18.9967 20.263C18.9967 20.8277 18.9314 21.3153 18.8007 21.726C18.67 22.132 18.4787 22.447 18.2267 22.671C17.9794 22.8903 17.6784 23 17.3237 23ZM17.3237 22.272C17.5384 22.272 17.7157 22.1857 17.8557 22.013C17.9957 21.8357 18.1007 21.5953 18.1707 21.292C18.2407 20.9887 18.2757 20.6457 18.2757 20.263C18.2757 19.8803 18.2407 19.5373 18.1707 19.234C18.1007 18.9307 17.9957 18.6903 17.8557 18.513C17.7157 18.3357 17.5384 18.247 17.3237 18.247C17.109 18.247 16.9317 18.3357 16.7917 18.513C16.6517 18.6857 16.5467 18.9237 16.4767 19.227C16.4067 19.5303 16.3717 19.8757 16.3717 20.263C16.3717 20.6503 16.4067 20.9957 16.4767 21.299C16.5467 21.6023 16.6517 21.8403 16.7917 22.013C16.9364 22.1857 17.1137 22.272 17.3237 22.272Z" fill="#292929"/>
<path d="M36.0228 163.679H341.43" stroke="#707070" stroke-width="0.1"/>
<path d="M36.0228 130.188H341.43" stroke="#212121" stroke-width="0.1"/>
<path d="M36.0228 96.697H341.43" stroke="#212121" stroke-width="0.1"/>
<path d="M36.0228 63.206H341.43" stroke="#212121" stroke-width="0.1"/>
<path d="M36.0228 29.714H341.43" stroke="#212121" stroke-width="0.1"/>
<path d="M36.0148 151.547C67.2096 124.547 87.8018 119.833 101.407 121.688C126.473 125.088 133.796 149.297 153.223 147.922C169.553 146.776 185.245 127.21 191.312 117V116.979C212.209 76.284 226.582 66.97 236.388 67.512C244.692 67.971 257.837 80.264 284.098 104.852C291.82 112.061 298.258 118.271 304.905 117.52C312.964 116.62 316.487 106.12 317.621 102.059C317.867 100.746 319.061 94.954 326.814 90.682C331.252 88.363 336.269 87.0245 341.43 86.782" stroke="#34A853" stroke-width="4"/>
<path opacity="0.7" d="M19.1517 189C18.6197 189 18.2067 188.76 17.9127 188.279C17.6234 187.794 17.4787 187.122 17.4787 186.263C17.4787 185.4 17.6234 184.728 17.9127 184.247C18.2067 183.766 18.6197 183.526 19.1517 183.526C19.5064 183.526 19.8074 183.638 20.0547 183.862C20.3067 184.081 20.498 184.396 20.6287 184.807C20.7594 185.213 20.8247 185.698 20.8247 186.263C20.8247 186.828 20.7594 187.315 20.6287 187.726C20.498 188.132 20.3067 188.447 20.0547 188.671C19.8074 188.89 19.5064 189 19.1517 189ZM19.1517 188.272C19.3664 188.272 19.5437 188.186 19.6837 188.013C19.8237 187.836 19.9287 187.595 19.9987 187.292C20.0687 186.989 20.1037 186.646 20.1037 186.263C20.1037 185.88 20.0687 185.537 19.9987 185.234C19.9287 184.931 19.8237 184.69 19.6837 184.513C19.5437 184.336 19.3664 184.247 19.1517 184.247C18.937 184.247 18.7597 184.336 18.6197 184.513C18.4797 184.686 18.3747 184.924 18.3047 185.227C18.2347 185.53 18.1997 185.876 18.1997 186.263C18.1997 186.65 18.2347 186.996 18.3047 187.299C18.3747 187.602 18.4797 187.84 18.6197 188.013C18.7644 188.186 18.9417 188.272 19.1517 188.272Z" fill="#292929"/>
<path opacity="0.7" d="M55.6239 210C55.5212 210 55.4349 209.965 55.3649 209.895C55.2996 209.825 55.2669 209.741 55.2669 209.643C55.2669 209.54 55.2996 209.456 55.3649 209.391L57.3529 207.067C57.4929 206.904 57.6002 206.75 57.6749 206.605C57.7542 206.46 57.7939 206.323 57.7939 206.192C57.7939 205.889 57.7146 205.646 57.5559 205.464C57.4019 205.282 57.1896 205.191 56.9189 205.191C56.7416 205.191 56.5806 205.238 56.4359 205.331C56.2959 205.42 56.1839 205.541 56.0999 205.695C56.0206 205.844 55.9809 206.01 55.9809 206.192C55.9809 206.285 55.9459 206.367 55.8759 206.437C55.8106 206.507 55.7266 206.542 55.6239 206.542C55.5259 206.542 55.4419 206.507 55.3719 206.437C55.3019 206.367 55.2669 206.285 55.2669 206.192C55.2669 205.875 55.3392 205.592 55.4839 205.345C55.6286 205.093 55.8246 204.895 56.0719 204.75C56.3239 204.605 56.6062 204.533 56.9189 204.533C57.2362 204.533 57.5116 204.601 57.7449 204.736C57.9782 204.871 58.1579 205.063 58.2839 205.31C58.4146 205.557 58.4799 205.851 58.4799 206.192C58.4799 206.341 58.4472 206.493 58.3819 206.647C58.3212 206.801 58.2419 206.948 58.1439 207.088C58.0506 207.228 57.9549 207.354 57.8569 207.466L56.2539 209.286H58.2139C58.3166 209.286 58.4029 209.323 58.4729 209.398C58.5429 209.468 58.5779 209.55 58.5779 209.643C58.5779 209.741 58.5429 209.825 58.4729 209.895C58.4029 209.965 58.3166 210 58.2139 210H55.6239ZM59.9281 210C59.8348 210 59.7531 209.965 59.6831 209.895C59.6131 209.825 59.5781 209.741 59.5781 209.643C59.5781 209.578 59.5991 209.503 59.6411 209.419L61.6501 205.247H59.5221C59.4195 205.247 59.3331 205.214 59.2631 205.149C59.1978 205.079 59.1651 204.993 59.1651 204.89C59.1651 204.787 59.1978 204.703 59.2631 204.638C59.3331 204.568 59.4195 204.533 59.5221 204.533H62.1891C62.2871 204.533 62.3711 204.568 62.4411 204.638C62.5111 204.708 62.5461 204.792 62.5461 204.89C62.5461 204.923 62.5415 204.955 62.5321 204.988C62.5228 205.016 62.5111 205.046 62.4971 205.079L60.2571 209.804C60.1825 209.935 60.0728 210 59.9281 210Z" fill="#292929"/>
<path opacity="0.7" d="M109.294 210C109.191 210 109.105 209.965 109.035 209.895C108.97 209.825 108.937 209.741 108.937 209.643C108.937 209.54 108.97 209.456 109.035 209.391L111.023 207.067C111.163 206.904 111.27 206.75 111.345 206.605C111.424 206.46 111.464 206.323 111.464 206.192C111.464 205.889 111.385 205.646 111.226 205.464C111.072 205.282 110.86 205.191 110.589 205.191C110.412 205.191 110.251 205.238 110.106 205.331C109.966 205.42 109.854 205.541 109.77 205.695C109.691 205.844 109.651 206.01 109.651 206.192C109.651 206.285 109.616 206.367 109.546 206.437C109.481 206.507 109.397 206.542 109.294 206.542C109.196 206.542 109.112 206.507 109.042 206.437C108.972 206.367 108.937 206.285 108.937 206.192C108.937 205.875 109.009 205.592 109.154 205.345C109.299 205.093 109.495 204.895 109.742 204.75C109.994 204.605 110.276 204.533 110.589 204.533C110.906 204.533 111.182 204.601 111.415 204.736C111.648 204.871 111.828 205.063 111.954 205.31C112.085 205.557 112.15 205.851 112.15 206.192C112.15 206.341 112.117 206.493 112.052 206.647C111.991 206.801 111.912 206.948 111.814 207.088C111.721 207.228 111.625 207.354 111.527 207.466L109.924 209.286H111.884C111.987 209.286 112.073 209.323 112.143 209.398C112.213 209.468 112.248 209.55 112.248 209.643C112.248 209.741 112.213 209.825 112.143 209.895C112.073 209.965 111.987 210 111.884 210H109.294ZM114.634 209.993C114.326 209.993 114.048 209.921 113.801 209.776C113.558 209.627 113.367 209.426 113.227 209.174C113.087 208.917 113.017 208.63 113.017 208.313C113.017 208.014 113.085 207.746 113.22 207.508C113.355 207.265 113.537 207.074 113.766 206.934C113.607 206.813 113.481 206.663 113.388 206.486C113.295 206.304 113.248 206.103 113.248 205.884C113.248 205.618 113.309 205.382 113.43 205.177C113.551 204.967 113.715 204.801 113.92 204.68C114.13 204.554 114.368 204.491 114.634 204.491C114.9 204.486 115.136 204.545 115.341 204.666C115.551 204.787 115.717 204.953 115.838 205.163C115.959 205.373 116.018 205.613 116.013 205.884C116.013 206.103 115.966 206.304 115.873 206.486C115.78 206.663 115.654 206.81 115.495 206.927C115.724 207.067 115.906 207.258 116.041 207.501C116.176 207.744 116.244 208.014 116.244 208.313C116.244 208.63 116.172 208.917 116.027 209.174C115.887 209.426 115.696 209.627 115.453 209.776C115.21 209.921 114.937 209.993 114.634 209.993ZM114.634 206.626C114.83 206.626 114.991 206.551 115.117 206.402C115.248 206.253 115.315 206.073 115.32 205.863C115.325 205.653 115.262 205.48 115.131 205.345C115 205.21 114.835 205.142 114.634 205.142C114.438 205.142 114.275 205.21 114.144 205.345C114.013 205.48 113.946 205.653 113.941 205.863C113.936 206.073 113.999 206.253 114.13 206.402C114.265 206.551 114.433 206.626 114.634 206.626ZM114.634 209.349C114.807 209.349 114.961 209.302 115.096 209.209C115.236 209.116 115.346 208.992 115.425 208.838C115.504 208.679 115.544 208.504 115.544 208.313C115.549 208.126 115.511 207.961 115.432 207.816C115.353 207.667 115.243 207.55 115.103 207.466C114.968 207.377 114.811 207.333 114.634 207.333C114.461 207.333 114.305 207.377 114.165 207.466C114.025 207.55 113.915 207.667 113.836 207.816C113.757 207.961 113.717 208.126 113.717 208.313C113.717 208.504 113.754 208.679 113.829 208.838C113.908 208.992 114.018 209.116 114.158 209.209C114.298 209.302 114.457 209.349 114.634 209.349Z" fill="#292929"/>
<path opacity="0.7" d="M162.697 210C162.604 210 162.522 209.965 162.452 209.895C162.382 209.825 162.347 209.741 162.347 209.643V205.373L161.836 205.59C161.757 205.623 161.682 205.639 161.612 205.639C161.509 205.639 161.423 205.606 161.353 205.541C161.288 205.476 161.255 205.392 161.255 205.289C161.255 205.214 161.274 205.147 161.311 205.086C161.348 205.025 161.407 204.981 161.486 204.953L162.578 204.561C162.601 204.552 162.625 204.545 162.648 204.54C162.671 204.535 162.692 204.533 162.711 204.533C162.818 204.533 162.902 204.568 162.963 204.638C163.028 204.703 163.061 204.79 163.061 204.897V209.643C163.061 209.741 163.026 209.825 162.956 209.895C162.886 209.965 162.8 210 162.697 210Z" fill="#292929"/>
<path opacity="0.7" d="M214.35 210C214.247 210 214.161 209.965 214.091 209.895C214.026 209.825 213.993 209.741 213.993 209.643C213.993 209.54 214.026 209.456 214.091 209.391L216.079 207.067C216.219 206.904 216.326 206.75 216.401 206.605C216.48 206.46 216.52 206.323 216.52 206.192C216.52 205.889 216.441 205.646 216.282 205.464C216.128 205.282 215.916 205.191 215.645 205.191C215.468 205.191 215.307 205.238 215.162 205.331C215.022 205.42 214.91 205.541 214.826 205.695C214.747 205.844 214.707 206.01 214.707 206.192C214.707 206.285 214.672 206.367 214.602 206.437C214.537 206.507 214.453 206.542 214.35 206.542C214.252 206.542 214.168 206.507 214.098 206.437C214.028 206.367 213.993 206.285 213.993 206.192C213.993 205.875 214.065 205.592 214.21 205.345C214.355 205.093 214.551 204.895 214.798 204.75C215.05 204.605 215.332 204.533 215.645 204.533C215.962 204.533 216.238 204.601 216.471 204.736C216.704 204.871 216.884 205.063 217.01 205.31C217.141 205.557 217.206 205.851 217.206 206.192C217.206 206.341 217.173 206.493 217.108 206.647C217.047 206.801 216.968 206.948 216.87 207.088C216.777 207.228 216.681 207.354 216.583 207.466L214.98 209.286H216.94C217.043 209.286 217.129 209.323 217.199 209.398C217.269 209.468 217.304 209.55 217.304 209.643C217.304 209.741 217.269 209.825 217.199 209.895C217.129 209.965 217.043 210 216.94 210H214.35Z" fill="#292929"/>
<path opacity="0.7" d="M265.966 210C265.616 210 265.306 209.928 265.035 209.783C264.765 209.634 264.552 209.433 264.398 209.181C264.244 208.924 264.167 208.637 264.167 208.32C264.167 208.213 264.198 208.126 264.258 208.061C264.324 207.991 264.401 207.956 264.489 207.956C264.583 207.956 264.66 207.991 264.72 208.061C264.781 208.126 264.811 208.213 264.811 208.32C264.811 208.511 264.86 208.689 264.958 208.852C265.056 209.011 265.189 209.139 265.357 209.237C265.525 209.33 265.714 209.377 265.924 209.377C266.232 209.377 266.48 209.293 266.666 209.125C266.858 208.952 266.953 208.712 266.953 208.404C266.953 208.208 266.911 208.033 266.827 207.879C266.743 207.72 266.629 207.594 266.484 207.501C266.34 207.408 266.176 207.361 265.994 207.361C265.892 207.361 265.805 207.326 265.735 207.256C265.67 207.186 265.637 207.1 265.637 206.997C265.637 206.894 265.67 206.81 265.735 206.745C265.805 206.675 265.892 206.64 265.994 206.64C266.125 206.64 266.251 206.607 266.372 206.542C266.494 206.472 266.594 206.381 266.673 206.269C266.753 206.152 266.792 206.022 266.792 205.877C266.792 205.672 266.718 205.499 266.568 205.359C266.419 205.219 266.228 205.149 265.994 205.149C265.817 205.149 265.654 205.184 265.504 205.254C265.36 205.324 265.243 205.417 265.154 205.534C265.07 205.651 265.028 205.781 265.028 205.926C265.028 206.033 264.998 206.124 264.937 206.199C264.877 206.269 264.8 206.304 264.706 206.304C264.618 206.304 264.541 206.271 264.475 206.206C264.415 206.136 264.384 206.05 264.384 205.947C264.384 205.676 264.454 205.434 264.594 205.219C264.734 205.004 264.926 204.836 265.168 204.715C265.411 204.589 265.682 204.526 265.98 204.526C266.256 204.526 266.503 204.587 266.722 204.708C266.946 204.825 267.121 204.986 267.247 205.191C267.378 205.392 267.443 205.62 267.443 205.877C267.443 206.059 267.401 206.22 267.317 206.36C267.238 206.5 267.135 206.621 267.009 206.724C266.883 206.822 266.75 206.904 266.61 206.969C266.979 207.095 267.245 207.286 267.408 207.543C267.576 207.795 267.66 208.084 267.66 208.411C267.66 208.714 267.583 208.987 267.429 209.23C267.275 209.468 267.07 209.657 266.813 209.797C266.557 209.932 266.274 210 265.966 210Z" fill="#292929"/>
<path opacity="0.19" d="M341.432 86.786V198.286H36.0148V151.547C67.2096 124.547 87.8018 119.833 101.407 121.688C126.473 125.088 133.796 149.297 153.223 147.922C169.553 146.776 185.245 127.21 191.312 117V116.979C212.209 76.284 226.582 66.97 236.388 67.512C244.692 67.971 257.837 80.264 284.098 104.852C291.82 112.061 298.258 118.271 304.905 117.52C312.964 116.62 316.487 106.12 317.621 102.059C317.867 100.746 319.061 94.954 326.814 90.682C331.253 88.3641 336.271 87.0269 341.432 86.786V86.786Z" fill="#00FF11"/>
<path opacity="0.7" d="M320.616 210C320.523 210 320.443 209.965 320.378 209.895C320.313 209.825 320.28 209.741 320.28 209.643V208.761H317.949C317.842 208.761 317.758 208.728 317.697 208.663C317.636 208.598 317.601 208.523 317.592 208.439C317.587 208.35 317.611 208.271 317.662 208.201L320.343 204.687C320.38 204.64 320.422 204.603 320.469 204.575C320.52 204.547 320.576 204.533 320.637 204.533C320.735 204.533 320.814 204.568 320.875 204.638C320.936 204.708 320.966 204.794 320.966 204.897V208.117H321.386C321.484 208.117 321.568 208.14 321.638 208.187C321.708 208.234 321.743 208.318 321.743 208.439C321.743 208.528 321.708 208.605 321.638 208.67C321.568 208.731 321.484 208.761 321.386 208.761H320.966V209.643C320.966 209.741 320.933 209.825 320.868 209.895C320.803 209.965 320.719 210 320.616 210ZM320.28 208.117V205.8L318.516 208.117H320.28Z" fill="#292929"/>
<path opacity="0.7" d="M8.53849 159C8.44515 159 8.36349 158.965 8.29349 158.895C8.22349 158.825 8.18849 158.741 8.18849 158.643V154.373L7.67749 154.59C7.59815 154.623 7.52349 154.639 7.45349 154.639C7.35082 154.639 7.26449 154.606 7.19449 154.541C7.12915 154.476 7.09649 154.392 7.09649 154.289C7.09649 154.214 7.11515 154.147 7.15249 154.086C7.18982 154.025 7.24815 153.981 7.32749 153.953L8.41949 153.561C8.44282 153.552 8.46615 153.545 8.48949 153.54C8.51282 153.535 8.53382 153.533 8.55249 153.533C8.65982 153.533 8.74382 153.568 8.80449 153.638C8.86982 153.703 8.90249 153.79 8.90249 153.897V158.643C8.90249 158.741 8.86749 158.825 8.79749 158.895C8.72749 158.965 8.64115 159 8.53849 159ZM11.6225 159C11.0905 159 10.6775 158.76 10.3835 158.279C10.0942 157.794 9.94953 157.122 9.94953 156.263C9.94953 155.4 10.0942 154.728 10.3835 154.247C10.6775 153.766 11.0905 153.526 11.6225 153.526C11.9772 153.526 12.2782 153.638 12.5255 153.862C12.7775 154.081 12.9689 154.396 13.0995 154.807C13.2302 155.213 13.2955 155.698 13.2955 156.263C13.2955 156.828 13.2302 157.315 13.0995 157.726C12.9689 158.132 12.7775 158.447 12.5255 158.671C12.2782 158.89 11.9772 159 11.6225 159ZM11.6225 158.272C11.8372 158.272 12.0145 158.186 12.1545 158.013C12.2945 157.836 12.3995 157.595 12.4695 157.292C12.5395 156.989 12.5745 156.646 12.5745 156.263C12.5745 155.88 12.5395 155.537 12.4695 155.234C12.3995 154.931 12.2945 154.69 12.1545 154.513C12.0145 154.336 11.8372 154.247 11.6225 154.247C11.4079 154.247 11.2305 154.336 11.0905 154.513C10.9505 154.686 10.8455 154.924 10.7755 155.227C10.7055 155.53 10.6705 155.876 10.6705 156.263C10.6705 156.65 10.7055 156.996 10.7755 157.299C10.8455 157.602 10.9505 157.84 11.0905 158.013C11.2352 158.186 11.4125 158.272 11.6225 158.272ZM15.6694 159C15.1374 159 14.7244 158.76 14.4304 158.279C14.1411 157.794 13.9964 157.122 13.9964 156.263C13.9964 155.4 14.1411 154.728 14.4304 154.247C14.7244 153.766 15.1374 153.526 15.6694 153.526C16.0241 153.526 16.3251 153.638 16.5724 153.862C16.8244 154.081 17.0157 154.396 17.1464 154.807C17.2771 155.213 17.3424 155.698 17.3424 156.263C17.3424 156.828 17.2771 157.315 17.1464 157.726C17.0157 158.132 16.8244 158.447 16.5724 158.671C16.3251 158.89 16.0241 159 15.6694 159ZM15.6694 158.272C15.8841 158.272 16.0614 158.186 16.2014 158.013C16.3414 157.836 16.4464 157.595 16.5164 157.292C16.5864 156.989 16.6214 156.646 16.6214 156.263C16.6214 155.88 16.5864 155.537 16.5164 155.234C16.4464 154.931 16.3414 154.69 16.2014 154.513C16.0614 154.336 15.8841 154.247 15.6694 154.247C15.4547 154.247 15.2774 154.336 15.1374 154.513C14.9974 154.686 14.8924 154.924 14.8224 155.227C14.7524 155.53 14.7174 155.876 14.7174 156.263C14.7174 156.65 14.7524 156.996 14.8224 157.299C14.8924 157.602 14.9974 157.84 15.1374 158.013C15.2821 158.186 15.4594 158.272 15.6694 158.272Z" fill="#292929"/>
<path opacity="0.7" d="M7.66349 123C7.56082 123 7.47449 122.965 7.40449 122.895C7.33915 122.825 7.30649 122.741 7.30649 122.643C7.30649 122.54 7.33915 122.456 7.40449 122.391L9.39249 120.067C9.53249 119.904 9.63982 119.75 9.71449 119.605C9.79382 119.46 9.83349 119.323 9.83349 119.192C9.83349 118.889 9.75415 118.646 9.59549 118.464C9.44149 118.282 9.22915 118.191 8.95849 118.191C8.78115 118.191 8.62015 118.238 8.47549 118.331C8.33549 118.42 8.22349 118.541 8.13949 118.695C8.06015 118.844 8.02049 119.01 8.02049 119.192C8.02049 119.285 7.98549 119.367 7.91549 119.437C7.85015 119.507 7.76615 119.542 7.66349 119.542C7.56549 119.542 7.48149 119.507 7.41149 119.437C7.34149 119.367 7.30649 119.285 7.30649 119.192C7.30649 118.875 7.37882 118.592 7.52349 118.345C7.66815 118.093 7.86415 117.895 8.11149 117.75C8.36349 117.605 8.64582 117.533 8.95849 117.533C9.27582 117.533 9.55115 117.601 9.78449 117.736C10.0178 117.871 10.1975 118.063 10.3235 118.31C10.4542 118.557 10.5195 118.851 10.5195 119.192C10.5195 119.341 10.4868 119.493 10.4215 119.647C10.3608 119.801 10.2815 119.948 10.1835 120.088C10.0902 120.228 9.99449 120.354 9.89649 120.466L8.29349 122.286H10.2535C10.3562 122.286 10.4425 122.323 10.5125 122.398C10.5825 122.468 10.6175 122.55 10.6175 122.643C10.6175 122.741 10.5825 122.825 10.5125 122.895C10.4425 122.965 10.3562 123 10.2535 123H7.66349ZM12.9897 123C12.4577 123 12.0447 122.76 11.7507 122.279C11.4614 121.794 11.3167 121.122 11.3167 120.263C11.3167 119.4 11.4614 118.728 11.7507 118.247C12.0447 117.766 12.4577 117.526 12.9897 117.526C13.3444 117.526 13.6454 117.638 13.8927 117.862C14.1447 118.081 14.3361 118.396 14.4667 118.807C14.5974 119.213 14.6627 119.698 14.6627 120.263C14.6627 120.828 14.5974 121.315 14.4667 121.726C14.3361 122.132 14.1447 122.447 13.8927 122.671C13.6454 122.89 13.3444 123 12.9897 123ZM12.9897 122.272C13.2044 122.272 13.3817 122.186 13.5217 122.013C13.6617 121.836 13.7667 121.595 13.8367 121.292C13.9067 120.989 13.9417 120.646 13.9417 120.263C13.9417 119.88 13.9067 119.537 13.8367 119.234C13.7667 118.931 13.6617 118.69 13.5217 118.513C13.3817 118.336 13.2044 118.247 12.9897 118.247C12.7751 118.247 12.5977 118.336 12.4577 118.513C12.3177 118.686 12.2127 118.924 12.1427 119.227C12.0727 119.53 12.0377 119.876 12.0377 120.263C12.0377 120.65 12.0727 120.996 12.1427 121.299C12.2127 121.602 12.3177 121.84 12.4577 122.013C12.6024 122.186 12.7797 122.272 12.9897 122.272ZM17.0366 123C16.5046 123 16.0916 122.76 15.7976 122.279C15.5083 121.794 15.3636 121.122 15.3636 120.263C15.3636 119.4 15.5083 118.728 15.7976 118.247C16.0916 117.766 16.5046 117.526 17.0366 117.526C17.3913 117.526 17.6923 117.638 17.9396 117.862C18.1916 118.081 18.3829 118.396 18.5136 118.807C18.6443 119.213 18.7096 119.698 18.7096 120.263C18.7096 120.828 18.6443 121.315 18.5136 121.726C18.3829 122.132 18.1916 122.447 17.9396 122.671C17.6923 122.89 17.3913 123 17.0366 123ZM17.0366 122.272C17.2513 122.272 17.4286 122.186 17.5686 122.013C17.7086 121.836 17.8136 121.595 17.8836 121.292C17.9536 120.989 17.9886 120.646 17.9886 120.263C17.9886 119.88 17.9536 119.537 17.8836 119.234C17.8136 118.931 17.7086 118.69 17.5686 118.513C17.4286 118.336 17.2513 118.247 17.0366 118.247C16.8219 118.247 16.6446 118.336 16.5046 118.513C16.3646 118.686 16.2596 118.924 16.1896 119.227C16.1196 119.53 16.0846 119.876 16.0846 120.263C16.0846 120.65 16.1196 120.996 16.1896 121.299C16.2596 121.602 16.3646 121.84 16.5046 122.013C16.6493 122.186 16.8266 122.272 17.0366 122.272Z" fill="#292929"/>
<path d="M98.8276 224C98.725 224 98.6386 223.965 98.5686 223.895C98.4986 223.825 98.4636 223.739 98.4636 223.636V218.897C98.4636 218.79 98.4986 218.703 98.5686 218.638C98.6386 218.568 98.725 218.533 98.8276 218.533H101.992C102.099 218.533 102.185 218.566 102.251 218.631C102.316 218.692 102.349 218.773 102.349 218.876C102.349 218.974 102.316 219.053 102.251 219.114C102.185 219.175 102.099 219.205 101.992 219.205H99.1916V220.906H101.201C101.308 220.906 101.394 220.939 101.46 221.004C101.525 221.065 101.558 221.144 101.558 221.242C101.558 221.34 101.525 221.422 101.46 221.487C101.394 221.548 101.308 221.578 101.201 221.578H99.1916V223.636C99.1916 223.739 99.1566 223.825 99.0866 223.895C99.0166 223.965 98.9303 224 98.8276 224ZM105.009 224.028C104.621 224.028 104.276 223.946 103.973 223.783C103.674 223.615 103.438 223.386 103.266 223.097C103.098 222.803 103.014 222.467 103.014 222.089C103.014 221.706 103.093 221.37 103.252 221.081C103.415 220.787 103.639 220.558 103.924 220.395C104.208 220.227 104.535 220.143 104.904 220.143C105.268 220.143 105.58 220.225 105.842 220.388C106.103 220.547 106.301 220.768 106.437 221.053C106.577 221.333 106.647 221.657 106.647 222.026C106.647 222.115 106.616 222.189 106.556 222.25C106.495 222.306 106.418 222.334 106.325 222.334H103.665C103.716 222.656 103.863 222.92 104.106 223.125C104.353 223.326 104.654 223.426 105.009 223.426C105.153 223.426 105.3 223.4 105.45 223.349C105.604 223.293 105.727 223.23 105.821 223.16C105.891 223.109 105.965 223.083 106.045 223.083C106.129 223.078 106.201 223.102 106.262 223.153C106.341 223.223 106.383 223.3 106.388 223.384C106.392 223.468 106.355 223.54 106.276 223.601C106.117 223.727 105.919 223.83 105.681 223.909C105.447 223.988 105.223 224.028 105.009 224.028ZM104.904 220.745C104.558 220.745 104.281 220.841 104.071 221.032C103.861 221.223 103.728 221.471 103.672 221.774H106.003C105.961 221.475 105.846 221.23 105.66 221.039C105.473 220.843 105.221 220.745 104.904 220.745ZM109.482 224.028C109.118 224.028 108.792 223.944 108.502 223.776C108.213 223.603 107.984 223.37 107.816 223.076C107.648 222.782 107.562 222.451 107.557 222.082V218.89C107.557 218.783 107.59 218.696 107.655 218.631C107.725 218.566 107.812 218.533 107.914 218.533C108.022 218.533 108.108 218.566 108.173 218.631C108.239 218.696 108.271 218.783 108.271 218.89V220.78C108.435 220.584 108.631 220.43 108.859 220.318C109.093 220.201 109.347 220.143 109.622 220.143C109.963 220.143 110.269 220.229 110.539 220.402C110.81 220.57 111.022 220.801 111.176 221.095C111.335 221.384 111.414 221.713 111.414 222.082C111.414 222.451 111.328 222.782 111.155 223.076C110.987 223.37 110.759 223.603 110.469 223.776C110.18 223.944 109.851 224.028 109.482 224.028ZM109.482 223.398C109.72 223.398 109.933 223.342 110.119 223.23C110.306 223.113 110.453 222.955 110.56 222.754C110.672 222.553 110.728 222.329 110.728 222.082C110.728 221.83 110.672 221.606 110.56 221.41C110.453 221.214 110.306 221.06 110.119 220.948C109.933 220.831 109.72 220.773 109.482 220.773C109.249 220.773 109.037 220.831 108.845 220.948C108.659 221.06 108.512 221.214 108.404 221.41C108.297 221.606 108.243 221.83 108.243 222.082C108.243 222.329 108.297 222.553 108.404 222.754C108.512 222.955 108.659 223.113 108.845 223.23C109.037 223.342 109.249 223.398 109.482 223.398ZM112.829 224C112.596 224 112.479 223.883 112.479 223.65V220.521C112.479 220.288 112.596 220.171 112.829 220.171C113.062 220.171 113.179 220.288 113.179 220.521V220.654C113.319 220.491 113.489 220.362 113.69 220.269C113.895 220.176 114.117 220.129 114.355 220.129C114.635 220.129 114.843 220.176 114.978 220.269C115.118 220.358 115.172 220.465 115.139 220.591C115.116 220.689 115.069 220.754 114.999 220.787C114.929 220.815 114.847 220.82 114.754 220.801C114.455 220.74 114.187 220.736 113.949 220.787C113.711 220.838 113.522 220.934 113.382 221.074C113.247 221.214 113.179 221.391 113.179 221.606V223.65C113.179 223.883 113.062 224 112.829 224ZM117.493 224.035C117.171 224.035 116.882 223.967 116.625 223.832C116.373 223.692 116.173 223.489 116.023 223.223C115.879 222.957 115.806 222.63 115.806 222.243V220.521C115.806 220.418 115.839 220.334 115.904 220.269C115.974 220.199 116.061 220.164 116.163 220.164C116.266 220.164 116.35 220.199 116.415 220.269C116.485 220.334 116.52 220.418 116.52 220.521V222.243C116.52 222.64 116.625 222.931 116.835 223.118C117.05 223.3 117.316 223.391 117.633 223.391C117.834 223.391 118.011 223.351 118.165 223.272C118.324 223.193 118.45 223.085 118.543 222.95C118.637 222.815 118.683 222.663 118.683 222.495V220.521C118.683 220.414 118.716 220.327 118.781 220.262C118.851 220.197 118.938 220.164 119.04 220.164C119.148 220.164 119.234 220.197 119.299 220.262C119.365 220.327 119.397 220.414 119.397 220.521V223.643C119.397 223.746 119.365 223.832 119.299 223.902C119.234 223.967 119.148 224 119.04 224C118.938 224 118.851 223.967 118.781 223.902C118.716 223.832 118.683 223.746 118.683 223.643V223.566C118.539 223.711 118.364 223.825 118.158 223.909C117.953 223.993 117.731 224.035 117.493 224.035ZM122.251 224.028C121.91 224.028 121.605 223.944 121.334 223.776C121.063 223.603 120.849 223.372 120.69 223.083C120.536 222.789 120.459 222.458 120.459 222.089C120.459 221.72 120.543 221.389 120.711 221.095C120.884 220.801 121.115 220.57 121.404 220.402C121.698 220.229 122.027 220.143 122.391 220.143C122.755 220.143 123.082 220.229 123.371 220.402C123.66 220.57 123.889 220.801 124.057 221.095C124.23 221.389 124.316 221.72 124.316 222.089V223.65C124.316 223.753 124.281 223.839 124.211 223.909C124.146 223.974 124.062 224.007 123.959 224.007C123.856 224.007 123.77 223.974 123.7 223.909C123.635 223.839 123.602 223.753 123.602 223.65V223.391C123.439 223.587 123.24 223.743 123.007 223.86C122.778 223.972 122.526 224.028 122.251 224.028ZM122.391 223.398C122.629 223.398 122.841 223.342 123.028 223.23C123.215 223.113 123.362 222.957 123.469 222.761C123.576 222.56 123.63 222.336 123.63 222.089C123.63 221.837 123.576 221.613 123.469 221.417C123.362 221.216 123.215 221.06 123.028 220.948C122.841 220.831 122.629 220.773 122.391 220.773C122.158 220.773 121.945 220.831 121.754 220.948C121.567 221.06 121.418 221.216 121.306 221.417C121.199 221.613 121.145 221.837 121.145 222.089C121.145 222.336 121.199 222.56 121.306 222.761C121.418 222.957 121.567 223.113 121.754 223.23C121.945 223.342 122.158 223.398 122.391 223.398ZM125.729 224C125.495 224 125.379 223.883 125.379 223.65V220.521C125.379 220.288 125.495 220.171 125.729 220.171C125.962 220.171 126.079 220.288 126.079 220.521V220.654C126.219 220.491 126.389 220.362 126.59 220.269C126.795 220.176 127.017 220.129 127.255 220.129C127.535 220.129 127.742 220.176 127.878 220.269C128.018 220.358 128.071 220.465 128.039 220.591C128.015 220.689 127.969 220.754 127.899 220.787C127.829 220.815 127.747 220.82 127.654 220.801C127.355 220.74 127.087 220.736 126.849 220.787C126.611 220.838 126.422 220.934 126.282 221.074C126.146 221.214 126.079 221.391 126.079 221.606V223.65C126.079 223.883 125.962 224 125.729 224ZM129.469 225.68C129.422 225.68 129.366 225.666 129.301 225.638C129.096 225.545 129.04 225.398 129.133 225.197L129.833 223.622L128.258 220.633C128.211 220.544 128.204 220.46 128.237 220.381C128.274 220.297 128.337 220.236 128.426 220.199C128.515 220.162 128.599 220.159 128.678 220.192C128.757 220.22 128.818 220.278 128.86 220.367L130.141 222.915L131.268 220.374C131.361 220.178 131.508 220.122 131.709 220.206C131.919 220.295 131.977 220.442 131.884 220.647L129.742 225.463C129.686 225.608 129.595 225.68 129.469 225.68Z" fill="#1E1E1E"/>
<path d="M151.797 224C151.694 224 151.608 223.965 151.538 223.895C151.468 223.825 151.433 223.739 151.433 223.636V218.897C151.433 218.79 151.468 218.703 151.538 218.638C151.608 218.568 151.694 218.533 151.797 218.533C151.937 218.533 152.044 218.598 152.119 218.729L154.198 222.894L156.221 218.729C156.295 218.598 156.403 218.533 156.543 218.533C156.645 218.533 156.732 218.568 156.802 218.638C156.872 218.703 156.907 218.79 156.907 218.897V223.636C156.907 223.739 156.869 223.825 156.795 223.895C156.725 223.965 156.641 224 156.543 224C156.44 224 156.354 223.965 156.284 223.895C156.214 223.825 156.179 223.739 156.179 223.636V220.157L154.485 223.608C154.405 223.729 154.3 223.79 154.17 223.79C154.016 223.79 153.904 223.718 153.834 223.573L152.161 220.22V223.636C152.161 223.739 152.126 223.825 152.056 223.895C151.986 223.965 151.899 224 151.797 224ZM159.836 224.028C159.495 224.028 159.189 223.944 158.919 223.776C158.648 223.603 158.433 223.372 158.275 223.083C158.121 222.789 158.044 222.458 158.044 222.089C158.044 221.72 158.128 221.389 158.296 221.095C158.468 220.801 158.699 220.57 158.989 220.402C159.283 220.229 159.612 220.143 159.976 220.143C160.34 220.143 160.666 220.229 160.956 220.402C161.245 220.57 161.474 220.801 161.642 221.095C161.814 221.389 161.901 221.72 161.901 222.089V223.65C161.901 223.753 161.866 223.839 161.796 223.909C161.73 223.974 161.646 224.007 161.544 224.007C161.441 224.007 161.355 223.974 161.285 223.909C161.219 223.839 161.187 223.753 161.187 223.65V223.391C161.023 223.587 160.825 223.743 160.592 223.86C160.363 223.972 160.111 224.028 159.836 224.028ZM159.976 223.398C160.214 223.398 160.426 223.342 160.613 223.23C160.799 223.113 160.946 222.957 161.054 222.761C161.161 222.56 161.215 222.336 161.215 222.089C161.215 221.837 161.161 221.613 161.054 221.417C160.946 221.216 160.799 221.06 160.613 220.948C160.426 220.831 160.214 220.773 159.976 220.773C159.742 220.773 159.53 220.831 159.339 220.948C159.152 221.06 159.003 221.216 158.891 221.417C158.783 221.613 158.73 221.837 158.73 222.089C158.73 222.336 158.783 222.56 158.891 222.761C159.003 222.957 159.152 223.113 159.339 223.23C159.53 223.342 159.742 223.398 159.976 223.398ZM163.313 224C163.08 224 162.963 223.883 162.963 223.65V220.521C162.963 220.288 163.08 220.171 163.313 220.171C163.547 220.171 163.663 220.288 163.663 220.521V220.654C163.803 220.491 163.974 220.362 164.174 220.269C164.38 220.176 164.601 220.129 164.839 220.129C165.119 220.129 165.327 220.176 165.462 220.269C165.602 220.358 165.656 220.465 165.623 220.591C165.6 220.689 165.553 220.754 165.483 220.787C165.413 220.815 165.332 220.82 165.238 220.801C164.94 220.74 164.671 220.736 164.433 220.787C164.195 220.838 164.006 220.934 163.866 221.074C163.731 221.214 163.663 221.391 163.663 221.606V223.65C163.663 223.883 163.547 224 163.313 224ZM167.823 224.028C167.45 224.028 167.116 223.944 166.822 223.776C166.533 223.603 166.304 223.372 166.136 223.083C165.973 222.789 165.891 222.458 165.891 222.089C165.891 221.711 165.973 221.375 166.136 221.081C166.3 220.787 166.524 220.558 166.808 220.395C167.093 220.227 167.42 220.143 167.788 220.143C168.339 220.143 168.796 220.353 169.16 220.773C169.226 220.848 169.249 220.925 169.23 221.004C169.212 221.083 169.16 221.153 169.076 221.214C169.011 221.261 168.939 221.277 168.859 221.263C168.78 221.244 168.708 221.202 168.642 221.137C168.414 220.894 168.129 220.773 167.788 220.773C167.429 220.773 167.137 220.894 166.913 221.137C166.689 221.375 166.577 221.692 166.577 222.089C166.577 222.341 166.629 222.565 166.731 222.761C166.839 222.957 166.986 223.113 167.172 223.23C167.359 223.342 167.576 223.398 167.823 223.398C168.141 223.398 168.397 223.316 168.593 223.153C168.668 223.092 168.745 223.06 168.824 223.055C168.904 223.046 168.974 223.067 169.034 223.118C169.114 223.183 169.158 223.258 169.167 223.342C169.177 223.421 169.149 223.494 169.083 223.559C168.747 223.872 168.327 224.028 167.823 224.028ZM170.648 224.007C170.546 224.007 170.459 223.974 170.389 223.909C170.324 223.839 170.291 223.753 170.291 223.65V220.528C170.291 220.421 170.324 220.334 170.389 220.269C170.459 220.204 170.546 220.171 170.648 220.171C170.756 220.171 170.842 220.204 170.907 220.269C170.973 220.334 171.005 220.421 171.005 220.528V220.605C171.15 220.46 171.325 220.346 171.53 220.262C171.736 220.178 171.957 220.136 172.195 220.136C172.517 220.136 172.804 220.206 173.056 220.346C173.313 220.481 173.514 220.682 173.658 220.948C173.808 221.214 173.882 221.541 173.882 221.928V223.65C173.882 223.753 173.847 223.839 173.777 223.909C173.712 223.974 173.628 224.007 173.525 224.007C173.423 224.007 173.336 223.974 173.266 223.909C173.201 223.839 173.168 223.753 173.168 223.65V221.928C173.168 221.531 173.061 221.242 172.846 221.06C172.636 220.873 172.373 220.78 172.055 220.78C171.859 220.78 171.682 220.82 171.523 220.899C171.365 220.978 171.239 221.086 171.145 221.221C171.052 221.352 171.005 221.503 171.005 221.676V223.65C171.005 223.753 170.973 223.839 170.907 223.909C170.842 223.974 170.756 224.007 170.648 224.007ZM170.648 222.607C170.546 222.607 170.459 222.574 170.389 222.509C170.324 222.439 170.291 222.353 170.291 222.25V218.89C170.291 218.783 170.324 218.696 170.389 218.631C170.459 218.566 170.546 218.533 170.648 218.533C170.756 218.533 170.842 218.566 170.907 218.631C170.973 218.696 171.005 218.783 171.005 218.89V222.25C171.005 222.353 170.973 222.439 170.907 222.509C170.842 222.574 170.756 222.607 170.648 222.607Z" fill="#1E1E1E"/>
<path opacity="0.7" d="M9.03549 89C8.68549 89 8.37515 88.9277 8.10449 88.783C7.83382 88.6337 7.62149 88.433 7.46749 88.181C7.31349 87.9243 7.23649 87.6373 7.23649 87.32C7.23649 87.2127 7.26682 87.1263 7.32749 87.061C7.39282 86.991 7.46982 86.956 7.55849 86.956C7.65182 86.956 7.72882 86.991 7.78949 87.061C7.85015 87.1263 7.88049 87.2127 7.88049 87.32C7.88049 87.5113 7.92949 87.6887 8.02749 87.852C8.12549 88.0107 8.25849 88.139 8.42649 88.237C8.59449 88.3303 8.78349 88.377 8.99349 88.377C9.30149 88.377 9.54882 88.293 9.73549 88.125C9.92682 87.9523 10.0225 87.712 10.0225 87.404C10.0225 87.208 9.98049 87.033 9.89649 86.879C9.81249 86.7203 9.69815 86.5943 9.55349 86.501C9.40882 86.4077 9.24549 86.361 9.06349 86.361C8.96082 86.361 8.87449 86.326 8.80449 86.256C8.73915 86.186 8.70649 86.0997 8.70649 85.997C8.70649 85.8943 8.73915 85.8103 8.80449 85.745C8.87449 85.675 8.96082 85.64 9.06349 85.64C9.19415 85.64 9.32015 85.6073 9.44149 85.542C9.56282 85.472 9.66315 85.381 9.74249 85.269C9.82182 85.1523 9.86149 85.0217 9.86149 84.877C9.86149 84.6717 9.78682 84.499 9.63749 84.359C9.48815 84.219 9.29682 84.149 9.06349 84.149C8.88615 84.149 8.72282 84.184 8.57349 84.254C8.42882 84.324 8.31215 84.4173 8.22349 84.534C8.13949 84.6507 8.09749 84.7813 8.09749 84.926C8.09749 85.0333 8.06715 85.1243 8.00649 85.199C7.94582 85.269 7.86882 85.304 7.77549 85.304C7.68682 85.304 7.60982 85.2713 7.54449 85.206C7.48382 85.136 7.45349 85.0497 7.45349 84.947C7.45349 84.6763 7.52349 84.4337 7.66349 84.219C7.80349 84.0043 7.99482 83.8363 8.23749 83.715C8.48015 83.589 8.75082 83.526 9.04949 83.526C9.32482 83.526 9.57215 83.5867 9.79149 83.708C10.0155 83.8247 10.1905 83.9857 10.3165 84.191C10.4472 84.3917 10.5125 84.6203 10.5125 84.877C10.5125 85.059 10.4705 85.22 10.3865 85.36C10.3072 85.5 10.2045 85.6213 10.0785 85.724C9.95249 85.822 9.81949 85.9037 9.67949 85.969C10.0482 86.095 10.3142 86.2863 10.4775 86.543C10.6455 86.795 10.7295 87.0843 10.7295 87.411C10.7295 87.7143 10.6525 87.9873 10.4985 88.23C10.3445 88.468 10.1392 88.657 9.88249 88.797C9.62582 88.9323 9.34349 89 9.03549 89ZM13.0649 89C12.5329 89 12.1199 88.7597 11.8259 88.279C11.5366 87.7937 11.3919 87.1217 11.3919 86.263C11.3919 85.3997 11.5366 84.7277 11.8259 84.247C12.1199 83.7663 12.5329 83.526 13.0649 83.526C13.4196 83.526 13.7206 83.638 13.9679 83.862C14.2199 84.0813 14.4112 84.3963 14.5419 84.807C14.6726 85.213 14.7379 85.6983 14.7379 86.263C14.7379 86.8277 14.6726 87.3153 14.5419 87.726C14.4112 88.132 14.2199 88.447 13.9679 88.671C13.7206 88.8903 13.4196 89 13.0649 89ZM13.0649 88.272C13.2796 88.272 13.4569 88.1857 13.5969 88.013C13.7369 87.8357 13.8419 87.5953 13.9119 87.292C13.9819 86.9887 14.0169 86.6457 14.0169 86.263C14.0169 85.8803 13.9819 85.5373 13.9119 85.234C13.8419 84.9307 13.7369 84.6903 13.5969 84.513C13.4569 84.3357 13.2796 84.247 13.0649 84.247C12.8502 84.247 12.6729 84.3357 12.5329 84.513C12.3929 84.6857 12.2879 84.9237 12.2179 85.227C12.1479 85.5303 12.1129 85.8757 12.1129 86.263C12.1129 86.6503 12.1479 86.9957 12.2179 87.299C12.2879 87.6023 12.3929 87.8403 12.5329 88.013C12.6776 88.1857 12.8549 88.272 13.0649 88.272ZM17.1118 89C16.5798 89 16.1668 88.7597 15.8728 88.279C15.5835 87.7937 15.4388 87.1217 15.4388 86.263C15.4388 85.3997 15.5835 84.7277 15.8728 84.247C16.1668 83.7663 16.5798 83.526 17.1118 83.526C17.4665 83.526 17.7675 83.638 18.0148 83.862C18.2668 84.0813 18.4581 84.3963 18.5888 84.807C18.7195 85.213 18.7848 85.6983 18.7848 86.263C18.7848 86.8277 18.7195 87.3153 18.5888 87.726C18.4581 88.132 18.2668 88.447 18.0148 88.671C17.7675 88.8903 17.4665 89 17.1118 89ZM17.1118 88.272C17.3265 88.272 17.5038 88.1857 17.6438 88.013C17.7838 87.8357 17.8888 87.5953 17.9588 87.292C18.0288 86.9887 18.0638 86.6457 18.0638 86.263C18.0638 85.8803 18.0288 85.5373 17.9588 85.234C17.8888 84.9307 17.7838 84.6903 17.6438 84.513C17.5038 84.3357 17.3265 84.247 17.1118 84.247C16.8971 84.247 16.7198 84.3357 16.5798 84.513C16.4398 84.6857 16.3348 84.9237 16.2648 85.227C16.1948 85.5303 16.1598 85.8757 16.1598 86.263C16.1598 86.6503 16.1948 86.9957 16.2648 87.299C16.3348 87.6023 16.4398 87.8403 16.5798 88.013C16.7245 88.1857 16.9018 88.272 17.1118 88.272Z" fill="#292929"/>
<path opacity="0.7" d="M10.0155 56C9.92215 56 9.84282 55.965 9.77749 55.895C9.71215 55.825 9.67949 55.741 9.67949 55.643V54.761H7.34849C7.24115 54.761 7.15715 54.7283 7.09649 54.663C7.03582 54.5977 7.00082 54.523 6.99149 54.439C6.98682 54.3503 7.01015 54.271 7.06149 54.201L9.74249 50.687C9.77982 50.6403 9.82182 50.603 9.86849 50.575C9.91982 50.547 9.97582 50.533 10.0365 50.533C10.1345 50.533 10.2138 50.568 10.2745 50.638C10.3352 50.708 10.3655 50.7943 10.3655 50.897V54.117H10.7855C10.8835 54.117 10.9675 54.1403 11.0375 54.187C11.1075 54.2337 11.1425 54.3177 11.1425 54.439C11.1425 54.5277 11.1075 54.6047 11.0375 54.67C10.9675 54.7307 10.8835 54.761 10.7855 54.761H10.3655V55.643C10.3655 55.741 10.3328 55.825 10.2675 55.895C10.2022 55.965 10.1182 56 10.0155 56ZM9.67949 54.117V51.8L7.91549 54.117H9.67949ZM13.4477 56C12.9157 56 12.5027 55.7597 12.2087 55.279C11.9194 54.7937 11.7747 54.1217 11.7747 53.263C11.7747 52.3997 11.9194 51.7277 12.2087 51.247C12.5027 50.7663 12.9157 50.526 13.4477 50.526C13.8024 50.526 14.1034 50.638 14.3507 50.862C14.6027 51.0813 14.7941 51.3963 14.9247 51.807C15.0554 52.213 15.1207 52.6983 15.1207 53.263C15.1207 53.8277 15.0554 54.3153 14.9247 54.726C14.7941 55.132 14.6027 55.447 14.3507 55.671C14.1034 55.8903 13.8024 56 13.4477 56ZM13.4477 55.272C13.6624 55.272 13.8397 55.1857 13.9797 55.013C14.1197 54.8357 14.2247 54.5953 14.2947 54.292C14.3647 53.9887 14.3997 53.6457 14.3997 53.263C14.3997 52.8803 14.3647 52.5373 14.2947 52.234C14.2247 51.9307 14.1197 51.6903 13.9797 51.513C13.8397 51.3357 13.6624 51.247 13.4477 51.247C13.2331 51.247 13.0557 51.3357 12.9157 51.513C12.7757 51.6857 12.6707 51.9237 12.6007 52.227C12.5307 52.5303 12.4957 52.8757 12.4957 53.263C12.4957 53.6503 12.5307 53.9957 12.6007 54.299C12.6707 54.6023 12.7757 54.8403 12.9157 55.013C13.0604 55.1857 13.2377 55.272 13.4477 55.272ZM17.4946 56C16.9626 56 16.5496 55.7597 16.2556 55.279C15.9663 54.7937 15.8216 54.1217 15.8216 53.263C15.8216 52.3997 15.9663 51.7277 16.2556 51.247C16.5496 50.7663 16.9626 50.526 17.4946 50.526C17.8493 50.526 18.1503 50.638 18.3976 50.862C18.6496 51.0813 18.8409 51.3963 18.9716 51.807C19.1023 52.213 19.1676 52.6983 19.1676 53.263C19.1676 53.8277 19.1023 54.3153 18.9716 54.726C18.8409 55.132 18.6496 55.447 18.3976 55.671C18.1503 55.8903 17.8493 56 17.4946 56ZM17.4946 55.272C17.7093 55.272 17.8866 55.1857 18.0266 55.013C18.1666 54.8357 18.2716 54.5953 18.3416 54.292C18.4116 53.9887 18.4466 53.6457 18.4466 53.263C18.4466 52.8803 18.4116 52.5373 18.3416 52.234C18.2716 51.9307 18.1666 51.6903 18.0266 51.513C17.8866 51.3357 17.7093 51.247 17.4946 51.247C17.2799 51.247 17.1026 51.3357 16.9626 51.513C16.8226 51.6857 16.7176 51.9237 16.6476 52.227C16.5776 52.5303 16.5426 52.8757 16.5426 53.263C16.5426 53.6503 16.5776 53.9957 16.6476 54.299C16.7176 54.6023 16.8226 54.8403 16.9626 55.013C17.1073 55.1857 17.2846 55.272 17.4946 55.272Z" fill="#292929"/>
</svg>
