<svg width="755" height="367" viewBox="0 0 755 367" fill="none" xmlns="http://www.w3.org/2000/svg">
<g clip-path="url(#clip0)">
<g clip-path="url(#clip1)">
<rect x="754.321" y="1.25" width="0.5" height="363.5" stroke="#E9EBF1" stroke-width="0.5"/>
</g>
<g clip-path="url(#clip2)">
<rect x="700.393" y="1.25" width="0.5" height="363.5" stroke="#E9EBF1" stroke-width="0.5"/>
</g>
<g clip-path="url(#clip3)">
<rect x="646.464" y="1.25" width="0.5" height="363.5" stroke="#E9EBF1" stroke-width="0.5"/>
</g>
<g clip-path="url(#clip4)">
<rect x="592.536" y="1.25" width="0.5" height="363.5" stroke="#E9EBF1" stroke-width="0.5"/>
</g>
<g clip-path="url(#clip5)">
<rect x="538.607" y="1.25" width="0.5" height="363.5" stroke="#E9EBF1" stroke-width="0.5"/>
</g>
<g clip-path="url(#clip6)">
<rect x="484.679" y="1.25" width="0.5" height="363.5" stroke="#E9EBF1" stroke-width="0.5"/>
</g>
<g clip-path="url(#clip7)">
<rect x="430.75" y="1.25" width="0.5" height="363.5" stroke="#E9EBF1" stroke-width="0.5"/>
</g>
<g clip-path="url(#clip8)">
<rect x="376.821" y="1.25" width="0.5" height="363.5" stroke="#E9EBF1" stroke-width="0.5"/>
</g>
<g clip-path="url(#clip9)">
<rect x="322.893" y="1.25" width="0.5" height="363.5" stroke="#E9EBF1" stroke-width="0.5"/>
</g>
<g clip-path="url(#clip10)">
<rect x="268.964" y="1.25" width="0.5" height="363.5" stroke="#E9EBF1" stroke-width="0.5"/>
</g>
<g clip-path="url(#clip11)">
<rect x="215.036" y="1.25" width="0.5" height="363.5" stroke="#E9EBF1" stroke-width="0.5"/>
</g>
<g clip-path="url(#clip12)">
<rect x="161.107" y="1.25" width="0.5" height="363.5" stroke="#E9EBF1" stroke-width="0.5"/>
</g>
<g clip-path="url(#clip13)">
<rect x="107.179" y="1.25" width="0.5" height="363.5" stroke="#E9EBF1" stroke-width="0.5"/>
</g>
<g clip-path="url(#clip14)">
<rect x="0.25" y="1.25" width="0.5" height="363.5" stroke="#E9EBF1" stroke-width="0.5"/>
<rect x="53.25" y="1.25" width="0.5" height="363.5" stroke="#E9EBF1" stroke-width="0.5"/>
</g>
<rect x="0.25" y="364.25" width="754.5" height="0.5" stroke="#E9EBF1" stroke-width="0.5"/>
<rect x="0.25" y="259.25" width="754.5" height="0.5" stroke="#E9EBF1" stroke-width="0.5"/>
<rect x="0.25" y="182.75" width="754.5" height="0.5" stroke="#E9EBF1" stroke-width="0.5"/>
<rect x="0.25" y="91.5" width="754.5" height="0.5" stroke="#E9EBF1" stroke-width="0.5"/>
<rect x="0.25" y="0.25" width="754.5" height="0.5" stroke="#E9EBF1" stroke-width="0.5"/>
<rect width="755" height="365" fill="white" fill-opacity="0.01"/>
<g clip-path="url(#clip15)">
<path d="M0 304.517C0 304.517 31.1149 285.118 52.7289 285.118C53.2139 285.118 53.6865 285.123 54.1472 285.132C76.2249 285.592 69.463 296.838 106.457 296.838C115.481 296.838 142.517 291.243 161.258 290.213C180 289.184 190.197 277.697 214.874 274.327C221.977 273.357 250.877 270.834 269.903 275.72C292.268 281.464 302.298 292.898 322.94 299.611C332.015 302.563 355.984 306.793 376.913 302.384C397.842 297.975 413.673 280.877 430.924 268.528C444.289 258.96 453.952 250.807 485.2 251.29C503.002 251.565 519.713 264.576 538.677 275.437C553.001 283.641 568.611 290.617 586.945 289.952C588.799 289.884 590.555 289.617 592.235 289.184C609.727 284.674 625.968 259.455 646.673 259.455C667.379 259.455 675.141 265.827 700.84 265.827C732.654 265.827 728.912 239.069 755 238.517" stroke="#FFE700" stroke-width="4" stroke-linecap="round"/>
<path d="M0 304.548C0 304.548 29.2699 241.661 52.6955 228.816C67.6778 220.601 70.6128 233.174 106.383 207.713C142.154 182.252 138.562 152.63 160.532 152.63C182.502 152.63 210.848 159.576 216.527 173.152C225.907 195.579 246.875 211.667 270.294 211.667C293.714 211.667 317.483 222.757 324.116 222.757C344.504 222.757 367.807 200.204 377.22 175.432C385.982 152.373 398.4 130.111 414.624 130.111C422.897 130.111 426.739 133.218 431.887 137.834C447.679 151.995 453.117 182.8 484.324 178.37C515.532 173.939 520.944 135.159 539.562 122.32C545.804 118.016 553.868 115.292 560.665 115.292C577.449 115.292 576.572 130.111 591.928 128.855C606.28 127.681 633.368 105.3 646.513 96.7786C659.658 88.2575 668.138 52.4231 701.405 52.4231C727.903 52.4231 752.514 26.5171 755 26.5171" stroke="#FF6C40" stroke-width="4" stroke-linecap="round"/>
<path d="M0 304.44C0 304.44 26.7537 254.041 52.4725 254.041C73.4168 254.041 79.2071 273.058 105.99 273.058C127.69 273.058 153.919 259.003 162.354 242.421C174.193 219.144 191.541 183.5 214.83 183.5C240.223 183.5 227.294 196.781 268.382 196.781C298.476 196.781 275.042 244.582 323.335 244.582C332.788 244.582 368.327 230.281 376.697 223.054C397.091 205.445 413.424 186.881 431.405 161.026C444.816 141.74 458.078 127.237 485.221 127.237C512.363 127.237 526.261 155.222 538.959 178.299C552.096 202.174 579.101 223.054 593.991 221.17C622.706 217.536 620.107 186.33 646.702 186.33C667.99 186.33 663.62 194.755 700.122 192.547C736.624 190.339 728.857 124.909 755 123.517" stroke="#826AF9" stroke-width="4" stroke-linecap="round"/>
</g>
<g clip-path="url(#clip16)">
<rect x="560.25" y="1.25" width="0.5" height="365.5" stroke="#DADADA" stroke-width="0.5" stroke-dasharray="4 16"/>
<g clip-path="url(#clip17)" filter="url(#filter0_d)">
<circle cx="562" cy="287.956" r="10" fill="white"/>
<circle cx="562" cy="287.956" r="3" fill="#FFE700"/>
<mask id="mask0" mask-type="alpha" maskUnits="userSpaceOnUse" x="559" y="284" width="6" height="7">
<circle cx="562" cy="287.956" r="3" fill="white"/>
</mask>
<g mask="url(#mask0)">
</g>
</g>
<g clip-path="url(#clip18)">
<g clip-path="url(#clip19)" filter="url(#filter1_d)">
<path fill-rule="evenodd" clip-rule="evenodd" d="M588 270.764C585.791 270.764 584 272.555 584 274.764V278.777L578.877 283.259C577.966 284.056 577.966 285.473 578.877 286.269L584 290.752V302.764C584 304.973 585.791 306.764 588 306.764H638C640.209 306.764 642 304.973 642 302.764V274.764C642 272.555 640.209 270.764 638 270.764H588Z" fill="white"/>
</g>
<path d="M599.47 291.435H600.995V289.18H603.249V287.655H600.995V285.401H599.47V287.655H597.215V289.18H599.47V291.435ZM604.772 292.764H610.993V291.256H607.329V291.196L608.603 289.948C610.397 288.311 610.878 287.493 610.878 286.5C610.878 284.987 609.643 283.918 607.772 283.918C605.939 283.918 604.682 285.013 604.687 286.726H606.438C606.434 285.891 606.962 285.379 607.759 285.379C608.526 285.379 609.097 285.857 609.097 286.624C609.097 287.318 608.671 287.796 607.878 288.558L604.772 291.435V292.764ZM615.556 292.884C617.517 292.884 618.919 291.805 618.914 290.314C618.919 289.227 618.228 288.452 616.945 288.29V288.222C617.921 288.047 618.595 287.357 618.59 286.376C618.595 285 617.389 283.918 615.582 283.918C613.792 283.918 612.445 284.966 612.42 286.475H614.188C614.21 285.81 614.819 285.379 615.573 285.379C616.319 285.379 616.818 285.831 616.813 286.487C616.818 287.173 616.234 287.638 615.394 287.638H614.58V288.993H615.394C616.383 288.993 617.001 289.487 616.997 290.19C617.001 290.885 616.404 291.362 615.561 291.362C614.747 291.362 614.137 290.936 614.103 290.297H612.245C612.275 291.823 613.639 292.884 615.556 292.884ZM625.018 291.128C625.022 292.176 625.691 293.067 626.939 293.067C628.175 293.067 628.866 292.176 628.861 291.128V290.668C628.866 289.611 628.192 288.729 626.939 288.729C625.708 288.729 625.022 289.619 625.018 290.668V291.128ZM620.539 286.134C620.543 287.182 621.212 288.064 622.456 288.064C623.697 288.064 624.387 287.19 624.383 286.134V285.673C624.387 284.617 623.714 283.734 622.456 283.734C621.238 283.734 620.543 284.617 620.539 285.673V286.134ZM620.956 292.764H622.069L628.069 284.037H626.956L620.956 292.764ZM626.258 290.668C626.262 290.25 626.428 289.82 626.939 289.82C627.476 289.82 627.617 290.25 627.613 290.668V291.128C627.617 291.546 627.459 291.967 626.939 291.967C626.42 291.967 626.262 291.533 626.258 291.128V290.668ZM621.787 285.673C621.792 285.269 621.949 284.825 622.456 284.825C622.993 284.825 623.138 285.256 623.134 285.673V286.134C623.138 286.551 622.976 286.973 622.456 286.973C621.954 286.973 621.792 286.551 621.787 286.134V285.673Z" fill="#505D6F"/>
</g>
<g clip-path="url(#clip20)" filter="url(#filter2_d)">
<circle cx="562" cy="209.983" r="10" fill="white"/>
<circle cx="562" cy="209.983" r="3" fill="#FFE700"/>
<mask id="mask1" mask-type="alpha" maskUnits="userSpaceOnUse" x="559" y="206" width="6" height="7">
<circle cx="562" cy="209.983" r="3" fill="white"/>
</mask>
<g mask="url(#mask1)">
</g>
</g>
<g clip-path="url(#clip21)">
<g clip-path="url(#clip22)" filter="url(#filter3_d)">
<path fill-rule="evenodd" clip-rule="evenodd" d="M588 192.011C585.791 192.011 584 193.802 584 196.011V200.023L578.877 204.505C577.966 205.302 577.966 206.719 578.877 207.516L584 211.998V224.011C584 226.22 585.791 228.011 588 228.011H638C640.209 228.011 642 226.22 642 224.011V196.011C642 193.802 640.209 192.011 638 192.011H588Z" fill="white"/>
</g>
<path d="M605.967 208.927H601.987V210.367H605.967V208.927ZM610.684 214.13C612.627 214.13 613.948 212.864 613.944 211.1C613.948 209.43 612.781 208.228 611.208 208.228C610.441 208.228 609.781 208.548 609.474 208.978H609.423L609.648 206.792H613.462V205.283H608.127L607.714 209.886L609.354 210.18C609.623 209.817 610.143 209.592 610.658 209.592C611.536 209.596 612.167 210.231 612.167 211.147C612.167 212.055 611.549 212.681 610.684 212.681C609.951 212.681 609.359 212.221 609.316 211.543H607.526C607.56 213.052 608.877 214.13 610.684 214.13ZM620.008 212.374C620.012 213.423 620.681 214.313 621.93 214.313C623.165 214.313 623.856 213.423 623.852 212.374V211.914C623.856 210.857 623.183 209.975 621.93 209.975C620.698 209.975 620.012 210.866 620.008 211.914V212.374ZM615.529 207.38C615.533 208.428 616.202 209.31 617.447 209.31C618.687 209.31 619.377 208.437 619.373 207.38V206.92C619.377 205.863 618.704 204.981 617.447 204.981C616.228 204.981 615.533 205.863 615.529 206.92V207.38ZM615.947 214.011H617.059L623.059 205.283H621.947L615.947 214.011ZM621.248 211.914C621.252 211.496 621.418 211.066 621.93 211.066C622.467 211.066 622.607 211.496 622.603 211.914V212.374C622.607 212.792 622.45 213.214 621.93 213.214C621.41 213.214 621.252 212.779 621.248 212.374V211.914ZM616.778 206.92C616.782 206.515 616.94 206.072 617.447 206.072C617.984 206.072 618.129 206.502 618.124 206.92V207.38C618.129 207.798 617.967 208.219 617.447 208.219C616.944 208.219 616.782 207.798 616.778 207.38V206.92Z" fill="#505D6F"/>
</g>
<g clip-path="url(#clip23)" filter="url(#filter4_d)">
<circle cx="561" cy="117.672" r="10" fill="white"/>
<circle cx="561" cy="117.672" r="3" fill="#FFE700"/>
<mask id="mask2" mask-type="alpha" maskUnits="userSpaceOnUse" x="558" y="114" width="6" height="7">
<circle cx="561" cy="117.672" r="3" fill="white"/>
</mask>
<g mask="url(#mask2)">
</g>
</g>
<g clip-path="url(#clip24)">
<g clip-path="url(#clip25)" filter="url(#filter5_d)">
<path fill-rule="evenodd" clip-rule="evenodd" d="M587 99.7006C584.791 99.7006 583 101.491 583 103.701V107.713L577.877 112.195C576.966 112.992 576.966 114.409 577.877 115.206L583 119.688V131.701C583 133.91 584.791 135.701 587 135.701H637C639.209 135.701 641 133.91 641 131.701V103.701C641 101.491 639.209 99.7006 637 99.7006H587Z" fill="white"/>
</g>
<path d="M599.366 120.371H600.892V118.117H603.146V116.591H600.892V114.337H599.366V116.591H597.112V118.117H599.366V120.371ZM608.711 112.973H606.977L604.816 114.341V115.978L606.815 114.725H606.866V121.701H608.711V112.973ZM610.786 121.701H617.007V120.192H613.342V120.132L614.616 118.884C616.411 117.247 616.892 116.429 616.892 115.436C616.892 113.924 615.656 112.854 613.786 112.854C611.953 112.854 610.696 113.949 610.7 115.662H612.452C612.447 114.827 612.976 114.316 613.773 114.316C614.54 114.316 615.111 114.793 615.111 115.56C615.111 116.255 614.685 116.732 613.892 117.495L610.786 120.371V121.701ZM623.121 120.064C623.125 121.113 623.794 122.003 625.043 122.003C626.279 122.003 626.969 121.113 626.965 120.064V119.604C626.969 118.547 626.296 117.665 625.043 117.665C623.811 117.665 623.125 118.556 623.121 119.604V120.064ZM618.642 115.07C618.647 116.118 619.316 117 620.56 117C621.8 117 622.49 116.127 622.486 115.07V114.61C622.49 113.553 621.817 112.671 620.56 112.671C619.341 112.671 618.647 113.553 618.642 114.61V115.07ZM619.06 121.701H620.172L626.172 112.973H625.06L619.06 121.701ZM624.361 119.604C624.365 119.186 624.532 118.756 625.043 118.756C625.58 118.756 625.721 119.186 625.716 119.604V120.064C625.721 120.482 625.563 120.904 625.043 120.904C624.523 120.904 624.365 120.469 624.361 120.064V119.604ZM619.891 114.61C619.895 114.205 620.053 113.762 620.56 113.762C621.097 113.762 621.242 114.192 621.238 114.61V115.07C621.242 115.488 621.08 115.909 620.56 115.909C620.057 115.909 619.895 115.488 619.891 115.07V114.61Z" fill="#505D6F"/>
</g>
</g>
</g>
<defs>
<filter id="filter0_d" x="544" y="272.956" width="36" height="36" filterUnits="userSpaceOnUse" color-interpolation-filters="sRGB">
<feFlood flood-opacity="0" result="BackgroundImageFix"/>
<feColorMatrix in="SourceAlpha" type="matrix" values="0 0 0 0 0 0 0 0 0 0 0 0 0 0 0 0 0 0 127 0"/>
<feOffset dy="3"/>
<feGaussianBlur stdDeviation="4"/>
<feColorMatrix type="matrix" values="0 0 0 0 0.439216 0 0 0 0 0.470588 0 0 0 0 0.529412 0 0 0 0.24 0"/>
<feBlend mode="normal" in2="BackgroundImageFix" result="effect1_dropShadow"/>
<feBlend mode="normal" in="SourceGraphic" in2="effect1_dropShadow" result="shape"/>
</filter>
<filter id="filter1_d" x="554" y="256.764" width="112" height="84" filterUnits="userSpaceOnUse" color-interpolation-filters="sRGB">
<feFlood flood-opacity="0" result="BackgroundImageFix"/>
<feColorMatrix in="SourceAlpha" type="matrix" values="0 0 0 0 0 0 0 0 0 0 0 0 0 0 0 0 0 0 127 0"/>
<feOffset dy="10"/>
<feGaussianBlur stdDeviation="12"/>
<feColorMatrix type="matrix" values="0 0 0 0 0.113725 0 0 0 0 0.164706 0 0 0 0 0.266667 0 0 0 0.12 0"/>
<feBlend mode="normal" in2="BackgroundImageFix" result="effect1_dropShadow"/>
<feBlend mode="normal" in="SourceGraphic" in2="effect1_dropShadow" result="shape"/>
</filter>
<filter id="filter2_d" x="544" y="194.983" width="36" height="36" filterUnits="userSpaceOnUse" color-interpolation-filters="sRGB">
<feFlood flood-opacity="0" result="BackgroundImageFix"/>
<feColorMatrix in="SourceAlpha" type="matrix" values="0 0 0 0 0 0 0 0 0 0 0 0 0 0 0 0 0 0 127 0"/>
<feOffset dy="3"/>
<feGaussianBlur stdDeviation="4"/>
<feColorMatrix type="matrix" values="0 0 0 0 0.439216 0 0 0 0 0.470588 0 0 0 0 0.529412 0 0 0 0.24 0"/>
<feBlend mode="normal" in2="BackgroundImageFix" result="effect1_dropShadow"/>
<feBlend mode="normal" in="SourceGraphic" in2="effect1_dropShadow" result="shape"/>
</filter>
<filter id="filter3_d" x="554" y="178.011" width="112" height="84" filterUnits="userSpaceOnUse" color-interpolation-filters="sRGB">
<feFlood flood-opacity="0" result="BackgroundImageFix"/>
<feColorMatrix in="SourceAlpha" type="matrix" values="0 0 0 0 0 0 0 0 0 0 0 0 0 0 0 0 0 0 127 0"/>
<feOffset dy="10"/>
<feGaussianBlur stdDeviation="12"/>
<feColorMatrix type="matrix" values="0 0 0 0 0.113725 0 0 0 0 0.164706 0 0 0 0 0.266667 0 0 0 0.12 0"/>
<feBlend mode="normal" in2="BackgroundImageFix" result="effect1_dropShadow"/>
<feBlend mode="normal" in="SourceGraphic" in2="effect1_dropShadow" result="shape"/>
</filter>
<filter id="filter4_d" x="543" y="102.672" width="36" height="36" filterUnits="userSpaceOnUse" color-interpolation-filters="sRGB">
<feFlood flood-opacity="0" result="BackgroundImageFix"/>
<feColorMatrix in="SourceAlpha" type="matrix" values="0 0 0 0 0 0 0 0 0 0 0 0 0 0 0 0 0 0 127 0"/>
<feOffset dy="3"/>
<feGaussianBlur stdDeviation="4"/>
<feColorMatrix type="matrix" values="0 0 0 0 0.439216 0 0 0 0 0.470588 0 0 0 0 0.529412 0 0 0 0.24 0"/>
<feBlend mode="normal" in2="BackgroundImageFix" result="effect1_dropShadow"/>
<feBlend mode="normal" in="SourceGraphic" in2="effect1_dropShadow" result="shape"/>
</filter>
<filter id="filter5_d" x="553" y="85.7006" width="112" height="84" filterUnits="userSpaceOnUse" color-interpolation-filters="sRGB">
<feFlood flood-opacity="0" result="BackgroundImageFix"/>
<feColorMatrix in="SourceAlpha" type="matrix" values="0 0 0 0 0 0 0 0 0 0 0 0 0 0 0 0 0 0 127 0"/>
<feOffset dy="10"/>
<feGaussianBlur stdDeviation="12"/>
<feColorMatrix type="matrix" values="0 0 0 0 0.113725 0 0 0 0 0.164706 0 0 0 0 0.266667 0 0 0 0.12 0"/>
<feBlend mode="normal" in2="BackgroundImageFix" result="effect1_dropShadow"/>
<feBlend mode="normal" in="SourceGraphic" in2="effect1_dropShadow" result="shape"/>
</filter>
<clipPath id="clip0">
<rect width="755" height="367" fill="white"/>
</clipPath>
<clipPath id="clip1">
<rect width="53.9286" height="388" fill="white" transform="translate(701.071 1)"/>
</clipPath>
<clipPath id="clip2">
<rect width="53.9285" height="388" fill="white" transform="translate(647.143 1)"/>
</clipPath>
<clipPath id="clip3">
<rect width="53.9286" height="388" fill="white" transform="translate(593.214 1)"/>
</clipPath>
<clipPath id="clip4">
<rect width="53.9286" height="388" fill="white" transform="translate(539.286 1)"/>
</clipPath>
<clipPath id="clip5">
<rect width="53.9286" height="388" fill="white" transform="translate(485.357 1)"/>
</clipPath>
<clipPath id="clip6">
<rect width="53.9286" height="388" fill="white" transform="translate(431.429 1)"/>
</clipPath>
<clipPath id="clip7">
<rect width="53.9286" height="388" fill="white" transform="translate(377.5 1)"/>
</clipPath>
<clipPath id="clip8">
<rect width="53.9286" height="388" fill="white" transform="translate(323.571 1)"/>
</clipPath>
<clipPath id="clip9">
<rect width="53.9286" height="388" fill="white" transform="translate(269.643 1)"/>
</clipPath>
<clipPath id="clip10">
<rect width="53.9286" height="388" fill="white" transform="translate(215.714 1)"/>
</clipPath>
<clipPath id="clip11">
<rect width="53.9286" height="388" fill="white" transform="translate(161.786 1)"/>
</clipPath>
<clipPath id="clip12">
<rect width="53.9286" height="388" fill="white" transform="translate(107.857 1)"/>
</clipPath>
<clipPath id="clip13">
<rect width="53.9286" height="388" fill="white" transform="translate(53.9286 1)"/>
</clipPath>
<clipPath id="clip14">
<rect width="53.9286" height="388" fill="white" transform="translate(0 1)"/>
</clipPath>
<clipPath id="clip15">
<rect width="755" height="279.209" fill="white" transform="translate(0 26.5171)"/>
</clipPath>
<clipPath id="clip16">
<rect width="91" height="366" fill="white" transform="translate(551 1)"/>
</clipPath>
<clipPath id="clip17">
<rect width="20" height="20" fill="white" transform="translate(552 277.956)"/>
</clipPath>
<clipPath id="clip18">
<rect width="58" height="36" fill="white" transform="translate(584 270.764)"/>
</clipPath>
<clipPath id="clip19">
<rect width="64" height="36" fill="white" transform="translate(578 270.764)"/>
</clipPath>
<clipPath id="clip20">
<rect width="20" height="20" fill="white" transform="translate(552 199.983)"/>
</clipPath>
<clipPath id="clip21">
<rect width="58" height="36" fill="white" transform="translate(584 192.011)"/>
</clipPath>
<clipPath id="clip22">
<rect width="64" height="36" fill="white" transform="translate(578 192.011)"/>
</clipPath>
<clipPath id="clip23">
<rect width="20" height="20" fill="white" transform="translate(551 107.672)"/>
</clipPath>
<clipPath id="clip24">
<rect width="58" height="36" fill="white" transform="translate(583 99.7006)"/>
</clipPath>
<clipPath id="clip25">
<rect width="64" height="36" fill="white" transform="translate(577 99.7006)"/>
</clipPath>
</defs>
</svg>
